<svg xmlns="http://www.w3.org/2000/svg" width="23.802" height="23.802" viewBox="0 0 23.802 23.802"><defs><style>.a{fill:#fff;}</style></defs><path class="a" d="M11.9,0A11.9,11.9,0,1,1,0,11.9,11.9,11.9,0,0,1,11.9,0Zm0,22.314c.776,0,1.878-.669,2.878-2.664a12.992,12.992,0,0,0,1.079-3.287H7.9a14.876,14.876,0,0,0,1.12,3.287c1,1.994,2.1,2.664,2.878,2.664ZM7.638,14.876h8.526a21.742,21.742,0,0,0,.2-2.975,21.742,21.742,0,0,0-.2-2.975H7.638a22.241,22.241,0,0,0,0,5.95Zm8.219-7.438a12.467,12.467,0,0,0-1.079-3.287c-1-2-2.1-2.663-2.878-2.663s-1.878.668-2.878,2.663A14.174,14.174,0,0,0,7.9,7.438Zm1.767,1.488a17.7,17.7,0,0,1,.228,2.975,17.7,17.7,0,0,1-.228,2.975h4.258a10.453,10.453,0,0,0,0-5.95Zm-2.4-6.9a13.783,13.783,0,0,1,2.194,5.408H21.31A10.43,10.43,0,0,0,15.225,2.03Zm-6.648,0A10.444,10.444,0,0,0,2.49,7.438H6.383A13.783,13.783,0,0,1,8.577,2.03ZM1.488,11.9a10.422,10.422,0,0,0,.431,2.975H6.136a23.895,23.895,0,0,1,0-5.95H1.919A10.422,10.422,0,0,0,1.488,11.9ZM21.31,16.364H17.419a13.765,13.765,0,0,1-2.194,5.407A10.418,10.418,0,0,0,21.31,16.364Zm-14.927,0H2.49A10.432,10.432,0,0,0,8.577,21.77a13.765,13.765,0,0,1-2.194-5.407Z"/></svg>