<svg xmlns="http://www.w3.org/2000/svg" width="47" height="47" viewBox="0 0 47 47"><defs><style>.a{fill:#fff;}</style></defs><path class="a" d="M23.5,0A23.5,23.5,0,1,0,47,23.5,23.5,23.5,0,0,0,23.5,0Zm0,44.063a20.431,20.431,0,0,1-11.677-3.657,8.8,8.8,0,0,1,8.739-8.093h5.875a8.8,8.8,0,0,1,8.74,8.093A20.467,20.467,0,0,1,23.5,44.063Zm14.293-5.811a11.75,11.75,0,0,0-11.355-8.877H20.563A11.748,11.748,0,0,0,9.207,38.254a20.563,20.563,0,1,1,28.586,0ZM23.5,11.75a7.344,7.344,0,1,0,7.344,7.344A7.342,7.342,0,0,0,23.5,11.75Zm0,11.75a4.406,4.406,0,1,1,4.406-4.406A4.407,4.407,0,0,1,23.5,23.5Z"/></svg>