<svg xmlns="http://www.w3.org/2000/svg" width="54.437" height="51.578" viewBox="0 0 54.437 51.578">
  <g transform="translate(-3177.67 982)">
    <path class="a" d="M79.333,59.094h8.59v8.421H86.818a.8.8,0,0,0-.851.851V73.3a.8.8,0,0,0,.851.851h8a.8.8,0,0,0,.851-.851V68.365a.8.8,0,0,0-.851-.851h-1.02V59.094h23.816v8.421H116.5a.8.8,0,0,0-.851.851V73.3a.8.8,0,0,0,.851.851h8a.8.8,0,0,0,.851-.851V68.365a.8.8,0,0,0-.851-.851h-1.106V59.094h8.676a.851.851,0,0,0,0-1.7c-5.273,0-8.59-5.1-8.59-13.1V38.681a.912.912,0,0,0-.17-.51l-1.871-2.212v-3.4c1.616.851,3.062-.34,4.338-1.361,1.7-1.361,2.382-1.871,3.487-.255a.828.828,0,0,0,1.531-.425v-5.7a.65.65,0,0,0-.17-.425c-1.7-2.637-3.487-2.126-5.954-.255-1.616,1.276-2.3,1.786-3.317.425v-.851a.851.851,0,1,0-1.7,0V35.873l-1.872,2.3a.625.625,0,0,0-.17.51v5.273c-2.977,3.742-7.06,6.635-11.908,6.635S96.855,47.7,93.792,43.954V38.68a.912.912,0,0,0-.17-.51l-1.871-2.212v-3.4c1.616.851,3.062-.34,4.338-1.361,1.7-1.361,2.382-1.871,3.487-.255a.828.828,0,0,0,1.531-.425v-5.7a.65.65,0,0,0-.17-.425c-1.7-2.637-3.487-2.126-5.954-.255-1.616,1.276-2.3,1.786-3.317.425V23.71a.851.851,0,0,0-1.7,0V35.873l-1.787,2.3a.625.625,0,0,0-.17.51v5.614c-.085,7.485-4.593,13.1-8.676,13.1a.851.851,0,0,0,0,1.7Zm42.018-32.237c1.616.851,3.062-.255,4.338-1.361,1.616-1.276,2.3-1.871,3.317-.425v3.4c-1.616-.851-3.062.255-4.338,1.361-1.616,1.276-2.3,1.871-3.317.425Zm-29.6,0c1.616.851,3.062-.255,4.338-1.361,1.616-1.276,2.3-1.871,3.317-.425v3.4c-1.616-.851-3.062.255-4.338,1.361-1.446,1.191-2.3,1.956-3.317.425Zm2.3,45.675H87.754V69.3h6.294Zm-1.956-5.018H89.625V59.094h2.467ZM109.1,57.393h-2.552v-5.1a13.3,13.3,0,0,0,2.552-.425Zm1.7-6.039a17.861,17.861,0,0,0,2.552-1.276v7.315H110.8Zm-5.954,6.039H102.3V51.865c.851.17,1.7.34,2.552.425Zm-4.253,0H98.046V50.079a17.874,17.874,0,0,0,2.552,1.276Zm23.05,15.14h-6.294V69.3h6.294Zm-1.871-5.018H119.31V59.095h2.467Zm5.1-10.122h-3.4V52.971A10.639,10.639,0,0,0,126.88,57.393ZM120.5,37.575l1.191,1.446V57.393H119.31V39.021Zm-2.892,9.016v10.8h-2.552V48.888a31.17,31.17,0,0,0,2.552-2.3Zm-21.264,2.3v8.506H93.793v-10.8a31.032,31.032,0,0,0,2.552,2.3Zm-6.719-9.866,1.191-1.446,1.276,1.446V57.393H89.625Zm-1.7,13.184v5.188h-4a13.073,13.073,0,0,0,4-5.188Z" transform="translate(3099.188 -1004.571)" />
  </g>
</svg>