<svg xmlns="http://www.w3.org/2000/svg" width="30.752" height="29.137" viewBox="0 0 30.752 29.137"><defs><style>.a{fill:#fff;}</style></defs><g transform="translate(0 0)"><path class="a" d="M78.963,43.2h4.853V47.96h-.625a.454.454,0,0,0-.48.48v2.787a.454.454,0,0,0,.48.48h4.517a.454.454,0,0,0,.48-.48V48.441a.454.454,0,0,0-.48-.48h-.576V43.2h13.454V47.96H99.96a.454.454,0,0,0-.48.48v2.787a.454.454,0,0,0,.48.48h4.517a.454.454,0,0,0,.48-.48V48.441a.454.454,0,0,0-.48-.48h-.625V43.2h4.9a.48.48,0,0,0,0-.961c-2.979,0-4.853-2.883-4.853-7.4V31.672a.515.515,0,0,0-.1-.288l-1.057-1.249V28.212c.913.48,1.73-.192,2.451-.769.961-.769,1.345-1.057,1.97-.144a.468.468,0,0,0,.865-.24V23.84a.367.367,0,0,0-.1-.24c-.961-1.49-1.97-1.2-3.363-.144-.913.721-1.3,1.009-1.874.24v-.48a.48.48,0,1,0-.961,0v6.871l-1.057,1.3a.353.353,0,0,0-.1.288v2.979C98.9,36.765,96.6,38.4,93.858,38.4s-5-1.634-6.727-3.748V31.672a.515.515,0,0,0-.1-.288l-1.057-1.249V28.212c.913.48,1.73-.192,2.451-.769.961-.769,1.345-1.057,1.97-.144a.468.468,0,0,0,.865-.24V23.839a.367.367,0,0,0-.1-.24c-.961-1.49-1.97-1.2-3.363-.144-.913.721-1.3,1.009-1.874.24v-.48a.48.48,0,0,0-.961,0v6.871l-1.009,1.3a.353.353,0,0,0-.1.288v3.171c-.048,4.228-2.595,7.4-4.9,7.4a.481.481,0,0,0,0,.961ZM102.7,24.993c.913.48,1.73-.144,2.451-.769.913-.721,1.3-1.057,1.874-.24v1.922c-.913-.48-1.73.144-2.451.769-.913.721-1.3,1.057-1.874.24Zm-16.721,0c.913.48,1.73-.144,2.451-.769.913-.721,1.3-1.057,1.874-.24v1.922c-.913-.48-1.73.144-2.451.769-.817.673-1.3,1.105-1.874.24Zm1.3,25.8H83.72V48.969h3.556ZM86.17,47.96H84.777V43.2H86.17Zm9.61-5.718H94.339V39.36a7.516,7.516,0,0,0,1.441-.24Zm.961-3.411a10.089,10.089,0,0,0,1.441-.721v4.132H96.741Zm-3.363,3.411H91.936V39.119c.48.1.961.192,1.441.24Zm-2.4,0H89.534V38.11a10.1,10.1,0,0,0,1.441.721ZM104,50.8h-3.556V48.97H104Zm-1.057-2.835h-1.393V43.2h1.393Zm2.883-5.718H103.9v-2.5A6.01,6.01,0,0,0,105.822,42.243Zm-3.6-11.2.673.817V42.242h-1.345V31.864Zm-1.634,5.093v6.1H99.144v-4.8a17.608,17.608,0,0,0,1.441-1.3Zm-12.012,1.3v4.8H87.132v-6.1a17.53,17.53,0,0,0,1.442,1.3Zm-3.8-5.574.673-.817.721.817V42.242H84.777Zm-.961,7.448v2.931H81.558a7.385,7.385,0,0,0,2.258-2.931Z" transform="translate(-78.482 -22.571)"/></g></svg>