<svg xmlns="http://www.w3.org/2000/svg" width="55.277" height="52.583" viewBox="0 0 55.277 52.583"><defs><style>.a{fill:#f19e15;}</style></defs><g transform="translate(-3352.829 1006)"><path class="a" d="M458.247,183.058h-1.121l.173-29.235a1.6,1.6,0,0,0-.172-.6l-2.07-2.5a.808.808,0,0,0-1.293,0l-2.243,2.5a.634.634,0,0,0-.172.517l-.086,29.235h-1.121a.864.864,0,0,0-.862.862v5a.815.815,0,0,0,.862.862h8.106a.815.815,0,0,0,.862-.862v-5a.852.852,0,0,0-.862-.776Z" transform="translate(2941.322 -1143.115)"/><path class="a" d="M162.208,182.2h-1.121l.086-29.235a1.6,1.6,0,0,0-.172-.6l-2.156-2.5a.808.808,0,0,0-1.294,0l-2.156,2.5a.634.634,0,0,0-.172.517l-.086,29.235h-1.121a.864.864,0,0,0-.862.862v5a.815.815,0,0,0,.862.862h8.106a.864.864,0,0,0,.862-.862v-5c.086-.431-.345-.776-.777-.776Z" transform="translate(3207.35 -1142.348)"/><path class="a" d="M551.288,328.865a7.677,7.677,0,0,1-6.985-4.743v3.1a10.264,10.264,0,0,0,1.725,1.638H544.3v1.725h6.985a.862.862,0,0,0,0-1.725Z" transform="translate(2855.956 -1299.185)"/><path class="a" d="M249.03,256.957a6.047,6.047,0,0,0,.862.69v8.624h-.862v1.725h20.611V266.27h-.862v-8.624c.259-.259.6-.431.862-.69v-2.328c-3.536,3.449-7.158,4.743-10.349,4.743a14.46,14.46,0,0,1-10.262-4.829Zm15.437,3.19a18.108,18.108,0,0,0,2.587-1.294v7.416h-2.587Zm-4.312.949a13.493,13.493,0,0,0,2.587-.431v5.605h-2.587Zm-4.312-.431c.862.172,1.725.345,2.587.431v5.174h-2.587Zm-4.226-1.811a18.118,18.118,0,0,0,2.587,1.294v6.123h-2.587Z" transform="translate(3121.219 -1236.676)"/><path class="a" d="M85.575,319.543H83.247a11.912,11.912,0,0,0,2.328-2.329v-3.277c-1.725,3.449-4.484,5.605-7.071,5.605a.862.862,0,1,0,0,1.725h6.985Z" transform="translate(3275.188 -1290.036)"/><path class="a" d="M491.728,34.57V33.276c1.294.69,2.76-.086,4.484-1.38a5.113,5.113,0,0,1,2.242-1.294c1.121,0,1.121,1.725,2.242,1.466a.856.856,0,0,0,.6-.862V25.429a.659.659,0,0,0-.172-.431c-1.725-2.674-3.536-2.242-6.037-.259-1.638,1.294-2.329,1.811-3.363.431v-.862a.862.862,0,0,0-1.725,0V34.57a2.934,2.934,0,0,1,1.724,0Z" transform="translate(2904.737 -1028.777)"/><path class="a" d="M197.217,31.347v-1.38c1.638.862,3.1-.345,4.484-1.38a5.113,5.113,0,0,1,2.242-1.294c.172,0,.6,0,1.294,1.035a.725.725,0,0,0,.948.345.856.856,0,0,0,.6-.862V22.035a.647.647,0,0,0-.086-.431c-1.725-2.674-3.536-2.242-6.037-.259-.862.862-1.638,1.552-2.242,1.552-.172,0-.517,0-1.121-.862v-.862a.864.864,0,0,0-.862-.862.815.815,0,0,0-.862.862V31.434a2.141,2.141,0,0,1,1.638-.086Z" transform="translate(3169.238 -1025.727)"/></g></svg>