<svg xmlns="http://www.w3.org/2000/svg" width="23.629" height="23.629" viewBox="0 0 23.629 23.629"><defs><style>.a{fill:#fff;}</style></defs><path class="a" d="M15.506,0a.738.738,0,0,0,0,1.477h5.6L9.816,12.77a.738.738,0,0,0,1.043,1.043L22.152,2.52v5.6a.738.738,0,0,0,1.477,0V.738A.741.741,0,0,0,22.891,0ZM2.954,2.954A2.956,2.956,0,0,0,0,5.907V20.675a2.956,2.956,0,0,0,2.954,2.954H17.722a2.956,2.956,0,0,0,2.954-2.954V14.03a.738.738,0,0,0-1.477,0v6.646a1.475,1.475,0,0,1-1.477,1.477H2.954a1.475,1.475,0,0,1-1.477-1.477V5.907A1.475,1.475,0,0,1,2.954,4.43H9.6a.738.738,0,1,0,0-1.477Z"/></svg>