<svg xmlns="http://www.w3.org/2000/svg" width="744.867" height="91.95" viewBox="0 0 744.867 91.95">
  <defs>
    <style>.a,.c,.d,.e,.f{fill:#fff;}.b{fill:#0e73ba;}.c,.d,.e{font-size:17px;}.c{font-family: 'proxima_novathin', Proxima Nova;font-weight:300;}.d{font-family:ProximaNova-Bold, Proxima Nova;font-weight:700;}.e{font-family:ProximaNova-Regular, Proxima Nova;}.f{font-size:43px;font-family:SignPainter-HouseScript, SignPainter;}.g{fill:#dbe6f4;}.h{fill:#bed6ee;}.i{fill:#9fc3e5;}.j{fill:#84b4df;}.k{fill:#69a5d7;}.l{fill:#449ad2;}.m{fill:#408fca;}.n{fill:#0086c8;}.o{fill:#f2b644;}</style>
  </defs>
  <g transform="translate(-13 -14.575)">
    <path class="a" d="M871.616,110.165l5.782-8A24.863,24.863,0,0,0,890.237,106c3.428,0,5.713-.874,7.6-2.756a12.292,12.292,0,0,0,2.958-5.849l.269-.874a15.548,15.548,0,0,1-11.092,4.5c-6.521,0-12.907-4.437-12.907-12.57a22.622,22.622,0,0,1,6.387-15.932,17.814,17.814,0,0,1,12.637-5.377,12.281,12.281,0,0,1,11.025,5.915l1.412-5.176h12.7L913.5,96.787c-1.747,6.521-3.5,10.084-6.453,13.042-3.63,3.63-8.672,5.311-16.268,5.311C883.784,115.139,876.389,113.19,871.616,110.165ZM901.6,89.325a8.755,8.755,0,0,0,2.689-6.319c0-3.429-2.353-5.782-6.118-5.782a7.706,7.706,0,0,0-5.714,2.42,8.931,8.931,0,0,0-2.756,6.588c0,3.429,2.353,5.58,5.916,5.58A8.379,8.379,0,0,0,901.6,89.325Z" transform="translate(-438.485 -26.845)" />
    <path class="a" d="M1013.219,83.877a21.463,21.463,0,0,1-21.378,21.175c-11.159,0-17.881-7.327-17.881-16.94a20.941,20.941,0,0,1,6.319-14.789A21.21,21.21,0,0,1,995.4,67C1006.5,67,1013.219,74.331,1013.219,83.877Zm-15.327,8.2a11.231,11.231,0,0,0,3.16-7.731c0-4.168-2.555-6.722-6.386-6.722a7.421,7.421,0,0,0-5.31,2.286,11.354,11.354,0,0,0-3.159,7.73c0,4.235,2.554,6.79,6.319,6.79A7.64,7.64,0,0,0,997.892,92.078Z" transform="translate(-490.751 -26.775)" />
    <path class="b" d="M1065.171,67.81h12.772l-1.075,4.033c2.488-2.555,5.849-4.84,10.151-4.84,4.974,0,8.134,2.554,9.479,6.319A17.251,17.251,0,0,1,1109.672,67c6.924,0,10.756,4.168,10.756,10.823a27.418,27.418,0,0,1-1.075,6.587l-5.311,19.764h-12.705l5.109-19.024a12.934,12.934,0,0,0,.4-3.025c0-2.421-1.209-3.832-3.9-3.832-3.429,0-5.513,2.42-6.656,6.588l-5.176,19.293h-12.7l5.109-19.024a12.956,12.956,0,0,0,.4-3.025c0-2.421-1.21-3.832-3.9-3.832-3.428,0-5.512,2.42-6.655,6.588l-5.177,19.293h-12.772Z" transform="translate(-532.353 -26.775)" />
    <path class="b" d="M1234.666,83.877a21.463,21.463,0,0,1-21.377,21.175c-11.16,0-17.882-7.327-17.882-16.94a20.941,20.941,0,0,1,6.318-14.789A21.21,21.21,0,0,1,1216.852,67C1227.944,67,1234.666,74.331,1234.666,83.877Zm-15.327,8.2a11.233,11.233,0,0,0,3.159-7.731c0-4.168-2.555-6.722-6.386-6.722a7.42,7.42,0,0,0-5.311,2.286,11.356,11.356,0,0,0-3.16,7.73c0,4.235,2.554,6.79,6.319,6.79A7.642,7.642,0,0,0,1219.34,92.078Z" transform="translate(-603.842 -26.775)" />
    <path class="b" d="M1290.986,86.786l-1.345,4.974h-12.772l13.109-49.073h12.773l-4.437,16.537a14.787,14.787,0,0,1,10.353-4.638c7.193,0,12.907,5.512,12.907,14.924a24.565,24.565,0,0,1-6.857,17.478,18.1,18.1,0,0,1-12.705,5.58A12.321,12.321,0,0,1,1290.986,86.786Zm14.588-7.328a11.463,11.463,0,0,0,3.16-7.932c0-3.966-2.555-6.386-6.252-6.386a8.329,8.329,0,0,0-5.848,2.554,11.085,11.085,0,0,0-3.16,7.8,6.07,6.07,0,0,0,6.319,6.453A8.27,8.27,0,0,0,1305.574,79.458Z" transform="translate(-645.443 -14.356)" />
    <path class="b" d="M1379.686,55.392h12.705l-9.748,36.368h-12.772Zm3.159-12.7h13.31L1393.6,52.1h-13.31Z" transform="translate(-692.938 -14.356)" />
    <path class="b" d="M1424.6,42.687h12.7L1424.128,91.76h-12.773Z" transform="translate(-714.124 -14.356)" />
    <path class="b" d="M1470.791,89.524c.269,3.562,2.488,5.982,6.924,5.982,2.555,0,4.907-.874,7.664-2.89l5.915,6.991a21.827,21.827,0,0,1-14.789,5.445c-10.756,0-17.344-6.318-17.344-16.134a22.312,22.312,0,0,1,6.521-15.662A21.053,21.053,0,0,1,1481.01,67C1491.7,67,1496.4,74.129,1496.4,82a22.616,22.616,0,0,1-1.412,7.529Zm.942-6.521h13.041a6.374,6.374,0,0,0,.269-2.016c0-2.488-1.613-4.572-4.907-4.572a7.99,7.99,0,0,0-5.849,2.487A10.931,10.931,0,0,0,1471.733,83Z" transform="translate(-738.538 -26.775)" />
    <g transform="translate(522.862 85.426)">
      <text class="c" transform="translate(114.49 16.099)">
        <tspan x="0" y="0">MSF</tspan>
      </text>
      <text class="d" transform="translate(150.227 16)">
        <tspan x="0" y="0">MOBILITY</tspan>
      </text>
      <text class="e" transform="translate(5 16.089)">
        <tspan x="0" y="0">POWERED BY</tspan>
      </text>
    </g>
    <text class="f" transform="matrix(1, -0.019, 0.019, 1, 397.718, 72.184)">
      <tspan x="0" y="0">my</tspan>
    </text>
    <path class="a" d="M899.575,69.6c-9.9-.84-15.822,6.889-19.885,13.778-2,3.389,3.744,6.4,5.747,3.007,2.966-5.03,6.738-11.455,14.138-10.827C903.836,75.915,903.809,69.955,899.575,69.6Z" transform="translate(-442.396 -28.066)" />
    <g transform="translate(13 14.575)">
      <path class="g" d="M63.591,14.575,41.419,94.1h2.417l22.172-79.52Z" transform="translate(-27.513 -14.575)" />
      <path class="h" d="M73.923,14.575,51.753,94.1h2.256l22.172-79.52Z" transform="translate(-32.791 -14.575)" />
      <path class="i" d="M84.255,14.575,62.084,94.1h2.1l22.172-79.52Z" transform="translate(-38.066 -14.575)" />
      <path class="j" d="M94.588,14.575,72.416,94.1h1.935l22.172-79.52Z" transform="translate(-43.343 -14.575)" />
      <path class="k" d="M104.922,14.575,82.752,94.1h1.772L106.7,14.575Z" transform="translate(-48.621 -14.575)" />
      <path class="l" d="M115.254,14.575,93.082,94.1h1.611l22.174-79.52Z" transform="translate(-53.897 -14.575)" />
      <path class="m" d="M125.586,14.575,103.414,94.1h1.45l22.174-79.52Z" transform="translate(-59.173 -14.575)" />
      <path class="n" d="M110.077,14.575l-14.964,52.9a4.949,4.949,0,0,1-4.768,3.7l-26.53.069-.956,3.357,23.965.371a5.021,5.021,0,0,1,4.712,6.476L87.944,94.1H99.081l22.17-79.521Z" transform="translate(-38.462 -14.575)" />
      <path class="a" d="M46.306,14.575H35.172L13,94.1H24.172l7.67-26.758a4.952,4.952,0,0,1,4.769-3.7L62.3,63.568l.949-3.357L40.134,59.84a5.023,5.023,0,0,1-4.709-6.479Z" transform="translate(-13 -14.575)" />
      <path class="a" d="M186.732,99.194a14.243,14.243,0,0,1-10.482,4.432c-8.057,0-10.985-5.842-8.927-13.025l5.989-20.883h9.006l-5.467,19.07c-1.057,3.693-.011,6.648,4.188,6.648a8.485,8.485,0,0,0,8.168-6.514l5.5-19.2h9.006l-7.76,27.061a57.149,57.149,0,0,0-1.371,5.973h-8.6a23.716,23.716,0,0,1,.752-3.558" transform="translate(-91.486 -42.735)" />
      <path class="a" d="M275.806,80.52c-.636,2.219-1.193,4.632-1.444,5.977h-8.6a23.216,23.216,0,0,1,.759-3.829A14.289,14.289,0,0,1,255.847,87.3c-9.48,0-14.132-7.384-11.262-17.392,2.77-9.664,11.515-17.254,20.926-17.254,5.756,0,7.791,2.348,8.241,4.1l5.407-18.867h8.873Zm-16.585-1.21c4.608,0,9.2-3.488,10.91-9.467,1.7-5.907-.949-9.2-5.557-9.2S255.352,64,253.658,69.91s.829,9.4,5.563,9.4" transform="translate(-130.838 -26.479)" />
      <path class="a" d="M331.691,90.826c-.549,2.62.724,5.039,4.649,5.039,2.98,0,4.847-1.545,5.346-3.293.424-1.476-.244-2.684-2.665-3.224l-4.111-1c-6.029-1.411-7.845-5.24-6.517-9.871,1.7-5.911,8.383-10.81,15.559-10.81,9.482,0,10.953,5.974,10.337,9.535l-7.995,1.677c.287-1.949-.424-4.43-4.214-4.43-2.374,0-4.673,1.407-5.21,3.29-.465,1.611.467,2.616,2.2,2.954l4.452,1.007c6.183,1.341,8.363,5.3,6.975,10.137-1.539,5.373-7.312,10.878-16.048,10.878-10.023,0-11.628-6.446-10.955-10.2Z" transform="translate(-171.496 -41.687)" />
      <path class="a" d="M425.094,85.187c-2.907,10.137-12.54,17.523-22.495,17.523s-15.354-7.386-12.446-17.523c2.928-10.206,12.543-17.524,22.495-17.524s15.373,7.318,12.446,17.524m-9,0c1.791-6.245-1.37-9.4-5.77-9.4s-9.368,3.157-11.163,9.4c-1.77,6.178,1.367,9.4,5.769,9.4s9.374-3.158,11.163-9.4" transform="translate(-205.207 -41.686)" />
      <path class="a" d="M474.582,101.844h-9.008l9.473-33.036h8.736l-1.174,4.1a15.136,15.136,0,0,1,11.041-4.968c8.26,0,10.377,5.84,8.3,13.093l-5.97,20.814h-9L492.5,82.576c1.058-3.7.058-6.581-4.278-6.581-3.924,0-7.1,3.02-8.193,6.847Z" transform="translate(-244.124 -41.827)" />
      <path class="n" d="M558.946,37.885h9L554.011,86.5h-9.006Z" transform="translate(-284.689 -26.479)" />
      <g transform="translate(289.186 9.697)">
        <path class="o" d="M611.365,34.392c3.113,0,4.839,2.483,3.952,5.572a7.876,7.876,0,0,1-7.11,5.441,4.023,4.023,0,0,1-3.993-5.441,7.98,7.98,0,0,1,7.151-5.572" transform="translate(-604.005 -34.392)" />
      </g>
      <path class="n" d="M589.87,69.781h9L589.4,102.817H580.4Z" transform="translate(-302.763 -42.768)" />
      <g transform="translate(295.315 26.263)">
        <path class="n" d="M625.538,102.155h-9.006L626,69.121h8.732l-1.172,4.1a15.135,15.135,0,0,1,11.041-4.968c8.262,0,10.379,5.842,8.3,13.093l-5.97,20.814h-9l5.525-19.269c1.057-3.7.058-6.579-4.275-6.579-3.927,0-7.1,3.02-8.192,6.847Z" transform="translate(-616.532 -68.249)" />
      </g>
      <path class="n" d="M705.569,37.885,691.63,86.5h9.008l2.5-8.73,4.84-3.892L713.164,86.5H724.2l-8.128-19.135,17.328-13.9h-11.78L706.585,65.749l7.989-27.864Z" transform="translate(-359.568 -26.479)" />
    </g>
  </g>
</svg>