<svg xmlns="http://www.w3.org/2000/svg" width="469.921" height="99.96" viewBox="0 0 469.921 99.96"><defs><style>.a{fill:#dbe6f4;}.b{fill:#bed6ee;}.c{fill:#9fc3e5;}.d{fill:#84b4df;}.e{fill:#69a5d7;}.f{fill:#449ad2;}.g{fill:#408fca;}.h{fill:#0086c8;}.i{fill:#fff;}.j{fill:#f2b644;}</style></defs><path class="a" d="M69.29,14.575,41.419,114.535h3.039L72.328,14.575Z" transform="translate(-23.939 -14.575)"/><path class="b" d="M79.622,14.575,51.753,114.535h2.836L82.46,14.575Z" transform="translate(-27.917 -14.575)"/><path class="c" d="M89.954,14.575,62.084,114.535h2.638L92.592,14.575Z" transform="translate(-31.893 -14.575)"/><path class="d" d="M100.287,14.575,72.416,114.535h2.433L102.72,14.575Z" transform="translate(-35.87 -14.575)"/><path class="e" d="M110.62,14.575,82.752,114.535h2.228L112.85,14.575Z" transform="translate(-39.849 -14.575)"/><path class="f" d="M120.953,14.575,93.082,114.535h2.025L122.98,14.575Z" transform="translate(-43.825 -14.575)"/><path class="g" d="M131.285,14.575l-27.871,99.959h1.822L133.11,14.575Z" transform="translate(-47.802 -14.575)"/><path class="h" d="M122.213,14.575l-18.81,66.5A6.221,6.221,0,0,1,97.41,85.73l-33.35.087-1.2,4.22,30.124.467A6.312,6.312,0,0,1,98.9,98.645l-4.513,15.89h14l27.869-99.96Z" transform="translate(-32.191 -14.575)"/><path class="i" d="M54.867,14.575h-14L13,114.535H27.044L36.686,80.9a6.225,6.225,0,0,1,6-4.651l32.289-.087,1.193-4.22-29.055-.467a6.314,6.314,0,0,1-5.92-8.145Z" transform="translate(-13 -14.575)"/><path class="i" d="M191.885,106.77c-3.411,3.883-8.749,5.571-13.176,5.571-10.128,0-13.808-7.343-11.222-16.373l7.528-26.251h11.321l-6.872,23.972c-1.329,4.642-.014,8.357,5.264,8.357,5.022,0,8.884-3.378,10.268-8.188l6.919-24.141h11.321l-9.755,34.017a71.826,71.826,0,0,0-1.723,7.508H190.939a29.812,29.812,0,0,1,.945-4.472" transform="translate(-72.157 -35.8)"/><path class="i" d="M284.046,91.479c-.8,2.789-1.5,5.823-1.815,7.513H271.424a29.181,29.181,0,0,1,.955-4.814A17.962,17.962,0,0,1,258.958,100c-11.917,0-17.764-9.282-14.157-21.862,3.482-12.148,14.475-21.689,26.305-21.689,7.236,0,9.793,2.951,10.359,5.149l6.8-23.717h11.153ZM263.2,89.958c5.792,0,11.561-4.385,13.714-11.9,2.131-7.426-1.193-11.559-6.985-11.559s-11.592,4.22-13.721,11.643,1.042,11.816,6.992,11.816" transform="translate(-101.818 -23.547)"/><path class="i" d="M333.833,96.779c-.691,3.294.91,6.335,5.844,6.335,3.746,0,6.092-1.942,6.72-4.139.533-1.855-.307-3.374-3.35-4.053l-5.168-1.261c-7.579-1.773-9.862-6.587-8.192-12.408,2.131-7.431,10.538-13.589,19.558-13.589,11.919,0,13.768,7.509,12.994,11.986l-10.05,2.108c.36-2.45-.533-5.569-5.3-5.569-2.984,0-5.875,1.768-6.549,4.135-.585,2.025.587,3.289,2.763,3.713l5.6,1.266c7.773,1.686,10.512,6.663,8.767,12.743-1.935,6.754-9.192,13.674-20.173,13.674-12.6,0-14.617-8.1-13.771-12.827Z" transform="translate(-132.463 -35.01)"/><path class="i" d="M434.276,89.691c-3.654,12.743-15.763,22.027-28.277,22.027s-19.3-9.284-15.645-22.027c3.68-12.829,15.767-22.028,28.277-22.028s19.324,9.2,15.644,22.028m-11.318,0c2.251-7.85-1.722-11.818-7.252-11.818s-11.776,3.968-14.032,11.818c-2.225,7.766,1.719,11.818,7.252,11.818s11.783-3.97,14.032-11.818" transform="translate(-157.872 -35.01)"/><path class="i" d="M476.9,110.559H465.574l11.908-41.528h10.981l-1.476,5.151a19.028,19.028,0,0,1,13.879-6.245c10.382,0,13.044,7.341,10.43,16.458l-7.5,26.164H492.476l6.945-24.221c1.33-4.646.073-8.272-5.377-8.272-4.932,0-8.921,3.8-10.3,8.607Z" transform="translate(-187.205 -35.115)"/><path class="h" d="M562.529,37.885h11.316L556.326,98.992H545.005Z" transform="translate(-217.779 -23.547)"/><g transform="translate(363.515 12.189)"><path class="j" d="M613.258,34.392c3.913,0,6.083,3.122,4.967,7a9.9,9.9,0,0,1-8.938,6.839c-3.831,0-6.083-3.128-5.019-6.839a10.031,10.031,0,0,1,8.99-7" transform="translate(-604.005 -34.392)"/></g><path class="h" d="M592.305,69.781h11.318l-11.905,41.528H580.4Z" transform="translate(-231.403 -35.825)"/><g transform="translate(371.221 33.014)"><path class="h" d="M627.853,110.87h-11.32l11.907-41.525h10.977l-1.473,5.149a19.025,19.025,0,0,1,13.879-6.245c10.385,0,13.046,7.343,10.43,16.458l-7.5,26.164H643.429l6.945-24.221c1.329-4.646.073-8.27-5.373-8.27-4.937,0-8.921,3.8-10.3,8.607Z" transform="translate(-616.532 -68.249)"/></g><path class="h" d="M709.152,37.885,691.63,98.992h11.323L706.1,88.018l6.085-4.892L718.7,98.992h13.876L722.358,74.938,744.14,57.464H729.332l-18.9,15.447,10.043-35.026Z" transform="translate(-274.218 -23.547)"/></svg>