<svg xmlns="http://www.w3.org/2000/svg" xmlns:xlink="http://www.w3.org/1999/xlink" width="25.145" height="24.152" viewBox="0 0 25.145 24.152"><defs><style>.a{fill:url(#a);}.b{fill:url(#b);}.c{fill:url(#c);}.d{fill:url(#d);}.e{fill:#1762a6;}.f{fill:#002961;}</style><linearGradient id="a" x1="0.287" y1="0.483" x2="1.465" y2="0.578" gradientUnits="objectBoundingBox"><stop offset="0" stop-color="#002961"/><stop offset="1" stop-color="#1762a6"/></linearGradient><linearGradient id="b" x1="0.095" y1="0.468" x2="1.28" y2="0.562" xlink:href="#a"/><linearGradient id="c" x1="-0.1" y1="0.452" x2="1.093" y2="0.547" gradientUnits="objectBoundingBox"><stop offset="0.001" stop-color="#002961"/><stop offset="1" stop-color="#1762a6"/></linearGradient><linearGradient id="d" x1="-0.297" y1="0.437" x2="0.904" y2="0.532" xlink:href="#a"/></defs><g transform="translate(0 0)"><path class="a" d="M136.957,495.016l-6.734,24.152h.734l6.734-24.152Z" transform="translate(-126 -495.016)"/><path class="b" d="M142.462,495.016l-6.734,24.152h.685l6.734-24.152Z" transform="translate(-129.97 -495.016)"/><path class="c" d="M147.966,495.016l-6.734,24.152h.637l6.734-24.152Z" transform="translate(-133.938 -495.016)"/><path class="d" d="M153.471,495.016l-6.734,24.152h.588l6.734-24.152Z" transform="translate(-137.907 -495.016)"/><path class="e" d="M158.977,495.016l-6.734,24.152h.538l6.734-24.152Z" transform="translate(-141.878 -495.016)"/><path class="e" d="M164.481,495.016l-6.734,24.152h.489l6.735-24.152Z" transform="translate(-145.846 -495.016)"/><path class="e" d="M169.986,495.016l-6.734,24.152h.44l6.735-24.152Z" transform="translate(-149.815 -495.016)"/><path class="e" d="M155.986,495.016l-4.545,16.068a1.5,1.5,0,0,1-1.448,1.124l-8.058.021-.29,1.02,7.279.113a1.525,1.525,0,0,1,1.431,1.967l-1.09,3.839h3.382l6.734-24.152Z" transform="translate(-134.236 -495.016)"/><path class="f" d="M125.2,495.016h-3.382l-6.734,24.152h3.393l2.33-8.127a1.5,1.5,0,0,1,1.449-1.124l7.8-.021.288-1.02-7.02-.113a1.526,1.526,0,0,1-1.43-1.968Z" transform="translate(-115.083 -495.016)"/></g></svg>