<svg xmlns="http://www.w3.org/2000/svg" width="55" height="48.891" viewBox="0 0 55 48.891"><defs><style>.a{fill:#f19e15;}</style></defs><path class="a" d="M38.958,11.372a7.514,7.514,0,0,1-.563,2.817,25.523,25.523,0,0,1-2.53,5.653l-.01-.067c-.3.592-.6,1.108-.917,1.614-.42.668-.859,1.251-1.289,1.986l-.038.057a74.724,74.724,0,0,1-4.7,6.273,1.7,1.7,0,0,1-2.826,0,74.723,74.723,0,0,1-4.7-6.273,43.347,43.347,0,0,1-4.459-8.069,2.238,2.238,0,0,0-.306-.6,12.9,12.9,0,0,1-.582-3.3,11.915,11.915,0,0,1,.076-1.318,11.458,11.458,0,0,1,22.84,1.318ZM27.5,14.428a3.765,3.765,0,0,0,3.819-3.819,3.819,3.819,0,1,0-7.639,0A3.765,3.765,0,0,0,27.5,14.428ZM33.611,28.7c1.289-1.738,2.75-3.81,4.077-5.958.172-.277.334-.554.506-.831V43.322l12.222-4.44V14.734L40.037,18.505c.21-.449.411-.888.6-1.337a17.615,17.615,0,0,0,1.26-4.22L51.925,9.3a2.308,2.308,0,0,1,2.1.273,2.27,2.27,0,0,1,.974,1.8V40.486a2.3,2.3,0,0,1-1.509,2.158L36.686,48.755a2.321,2.321,0,0,1-1.566,0L19.1,42.921,3.075,48.755A2.292,2.292,0,0,1,0,46.6V17.484a2.276,2.276,0,0,1,1.509-2.072l11.477-4.173v.134a13.52,13.52,0,0,0,.85,4.44L4.583,19.174V43.322l12.222-4.44V21.914c.172.277.334.554.506.831,1.327,2.148,2.788,4.22,4.077,5.958V38.882l12.222,4.44Z"/></svg>