<svg xmlns="http://www.w3.org/2000/svg" width="28.855" height="25.651" viewBox="0 0 28.855 25.651"><defs><style>.a{fill:#fff;}</style></defs><path class="a" d="M13.225,5.611a1.2,1.2,0,1,1,1.2,1.2A1.2,1.2,0,0,1,13.225,5.611Zm.461,9.974c-1.608-1.964-5.27-6.838-5.27-9.573a6.012,6.012,0,1,1,12.023,0c0,2.735-3.662,7.61-5.27,9.573a.894.894,0,0,1-1.483,0ZM18.365,7.72a4.6,4.6,0,0,0,.471-1.708,4.408,4.408,0,1,0-8.817,0A4.6,4.6,0,0,0,10.49,7.72a16.687,16.687,0,0,0,1.323,2.535,43.25,43.25,0,0,0,2.615,3.727,43.25,43.25,0,0,0,2.615-3.727A16.687,16.687,0,0,0,18.365,7.72Zm1.969,3.447a.914.914,0,0,1-.125.035A20.181,20.181,0,0,0,21.3,9.052l5.906-2.365A1.2,1.2,0,0,1,28.855,7.8V21.371a1.208,1.208,0,0,1-.756,1.117l-7.765,3.106a.793.793,0,0,1-.516.025L8.862,22.488,1.649,25.374A1.2,1.2,0,0,1,0,24.257V10.691A1.207,1.207,0,0,1,.756,9.573L6.928,7.109a9.2,9.2,0,0,0,.461,1.538L1.6,10.961v12.7L8.015,21.1V15.184a.8.8,0,1,1,1.6,0v5.851l9.618,2.75v-8.6a.8.8,0,1,1,1.6,0v8.481L27.252,21.1V8.4Z"/></svg>