<svg xmlns="http://www.w3.org/2000/svg" width="239.553" height="40.248" viewBox="0 0 239.553 40.248"><defs><style>.a,.b{fill:#fff;}.b{font-size:27px;font-family:SignPainter-HouseScript, SignPainter;}</style></defs><g transform="translate(-1854.313 781.307)"><path class="a" d="M871.616,96.019,875.5,90.65a16.687,16.687,0,0,0,8.618,2.572,6.619,6.619,0,0,0,5.1-1.85,8.252,8.252,0,0,0,1.985-3.926l.181-.587a10.436,10.436,0,0,1-7.445,3.023c-4.377,0-8.663-2.978-8.663-8.437a15.184,15.184,0,0,1,4.287-10.694,11.957,11.957,0,0,1,8.482-3.609,8.243,8.243,0,0,1,7.4,3.97l.947-3.474h8.528l-5.189,19.4c-1.173,4.377-2.346,6.768-4.332,8.754-2.437,2.436-5.82,3.564-10.919,3.564A25.523,25.523,0,0,1,871.616,96.019ZM891.74,82.032a5.876,5.876,0,0,0,1.805-4.241,3.759,3.759,0,0,0-4.106-3.881,5.173,5.173,0,0,0-3.835,1.624,6,6,0,0,0-1.85,4.422c0,2.3,1.579,3.745,3.971,3.745A5.624,5.624,0,0,0,891.74,82.032Z" transform="translate(1004.285 -840.418)"/><path class="a" d="M1000.311,78.329a14.406,14.406,0,0,1-14.349,14.213c-7.49,0-12-4.918-12-11.37a14.055,14.055,0,0,1,4.241-9.926A14.236,14.236,0,0,1,988.354,67C995.8,67,1000.311,71.922,1000.311,78.329Zm-10.288,5.5a7.538,7.538,0,0,0,2.121-5.189c0-2.8-1.715-4.512-4.286-4.512a4.982,4.982,0,0,0-3.564,1.534,7.621,7.621,0,0,0-2.121,5.188c0,2.843,1.714,4.557,4.241,4.557A5.128,5.128,0,0,0,990.023,83.834Z" transform="translate(935.554 -840.325)"/><path class="a" d="M1061.966,67.545h8.573l-.722,2.707A9.543,9.543,0,0,1,1076.63,67a6.273,6.273,0,0,1,6.362,4.241A11.579,11.579,0,0,1,1091.835,67c4.647,0,7.219,2.8,7.219,7.264a18.394,18.394,0,0,1-.722,4.421l-3.565,13.266h-8.528l3.429-12.769a8.676,8.676,0,0,0,.27-2.03,2.3,2.3,0,0,0-2.616-2.572c-2.3,0-3.7,1.624-4.467,4.422l-3.474,12.95h-8.528l3.429-12.769a8.7,8.7,0,0,0,.27-2.03,2.305,2.305,0,0,0-2.617-2.572c-2.3,0-3.7,1.624-4.466,4.422L1064,91.956h-8.573Z" transform="translate(880.846 -840.325)"/><path class="a" d="M1221.759,78.329a14.406,14.406,0,0,1-14.348,14.213c-7.491,0-12-4.918-12-11.37a14.057,14.057,0,0,1,4.241-9.926A14.237,14.237,0,0,1,1209.8,67C1217.247,67,1221.759,71.922,1221.759,78.329Zm-10.287,5.5a7.54,7.54,0,0,0,2.121-5.189c0-2.8-1.715-4.512-4.287-4.512a4.98,4.98,0,0,0-3.564,1.534,7.622,7.622,0,0,0-2.121,5.188c0,2.843,1.714,4.557,4.241,4.557A5.129,5.129,0,0,0,1211.471,83.834Z" transform="translate(786.836 -840.325)"/><path class="a" d="M1286.344,72.286l-.9,3.339h-8.573l8.8-32.938h8.573l-2.978,11.1a9.925,9.925,0,0,1,6.949-3.113c4.828,0,8.663,3.7,8.663,10.017a16.489,16.489,0,0,1-4.6,11.731,12.146,12.146,0,0,1-8.528,3.745A8.27,8.27,0,0,1,1286.344,72.286Zm9.792-4.919a7.694,7.694,0,0,0,2.121-5.324,3.98,3.98,0,0,0-4.2-4.286,5.592,5.592,0,0,0-3.926,1.714,7.44,7.44,0,0,0-2.12,5.234,4.074,4.074,0,0,0,4.241,4.331A5.55,5.55,0,0,0,1296.136,67.368Z" transform="translate(732.129 -823.994)"/><path class="a" d="M1376.459,51.215h8.528l-6.543,24.41h-8.573Zm2.12-8.528h8.934L1385.8,49h-8.934Z" transform="translate(669.671 -823.994)"/><path class="a" d="M1420.245,42.687h8.528l-8.844,32.938h-8.573Z" transform="translate(641.811 -823.994)"/><path class="a" d="M1466.968,82.12c.181,2.391,1.67,4.015,4.647,4.015a8.44,8.44,0,0,0,5.144-1.94l3.97,4.692a14.65,14.65,0,0,1-9.926,3.655c-7.219,0-11.641-4.241-11.641-10.829a14.977,14.977,0,0,1,4.377-10.513,14.132,14.132,0,0,1,10.288-4.2c7.174,0,10.333,4.783,10.333,10.062a15.184,15.184,0,0,1-.948,5.054Zm.632-4.377h8.753a4.275,4.275,0,0,0,.18-1.353,2.977,2.977,0,0,0-3.293-3.069,5.363,5.363,0,0,0-3.926,1.669A7.335,7.335,0,0,0,1467.6,77.743Z" transform="translate(609.706 -840.325)"/><text class="b" transform="matrix(1, -0.019, 0.019, 1, 1855.674, -753.002)"><tspan x="0" y="0">my</tspan></text><path class="a" d="M892.9,69.575c-6.643-.564-10.62,4.624-13.347,9.248-1.341,2.275,2.513,4.3,3.857,2.019,1.991-3.376,4.522-7.689,9.49-7.267C895.76,73.817,895.742,69.816,892.9,69.575Z" transform="translate(999.142 -842.023)"/></g></svg>