<svg xmlns="http://www.w3.org/2000/svg" width="25" height="44" viewBox="0 0 25 44"><defs><style>.a,.b{fill:#fff;}.a{font-size:12px;font-family:ProximaNova-Black, Proxima Nova;font-weight:800;}</style></defs><g transform="translate(-24 -288)"><text class="a" transform="translate(24 328)"><tspan x="0" y="0">NYC</tspan></text><path class="b" d="M15.007,10.593a4.414,4.414,0,1,1-4.414-4.414A4.413,4.413,0,0,1,15.007,10.593ZM10.593,8.828a1.766,1.766,0,1,0,1.766,1.766A1.764,1.764,0,0,0,10.593,8.828Zm10.593,1.766c0,4.822-6.455,13.407-9.286,16.949a1.667,1.667,0,0,1-2.615,0C6.406,24,0,15.415,0,10.593a10.593,10.593,0,0,1,21.187,0ZM10.593,2.648a7.947,7.947,0,0,0-7.945,7.945,8.892,8.892,0,0,0,.844,3.156,33.312,33.312,0,0,0,2.345,4.408c1.567,2.549,3.388,4.966,4.756,6.764,1.368-1.8,3.189-4.215,4.756-6.764a33.707,33.707,0,0,0,2.345-4.408,8.9,8.9,0,0,0,.844-3.156,7.947,7.947,0,0,0-7.945-7.945Z" transform="translate(26.505 288)"/></g></svg>