<svg xmlns="http://www.w3.org/2000/svg" width="50.695" height="50.695" viewBox="0 0 50.695 50.695"><defs><style>.a{fill:#072661;}</style></defs><path class="a" d="M43.566,9.505A2.376,2.376,0,1,1,41.19,7.129,2.371,2.371,0,0,1,43.566,9.505ZM41.19,25.348H33.269a4.753,4.753,0,1,0,0,9.505h9.505a7.921,7.921,0,1,1,0,15.842H13.822a37.293,37.293,0,0,0,2.525-3.168H42.774a4.753,4.753,0,1,0,0-9.505H33.269a7.922,7.922,0,1,1,0-15.842h5.06c-2.8-3.337-6.644-8.644-6.644-12.674a9.505,9.505,0,0,1,19.011,0c0,4.386-4.555,10.288-7.357,13.506C42.091,24.447,41.19,25.348,41.19,25.348Zm5.188-12.109a9.079,9.079,0,0,0,1.149-3.733,6.337,6.337,0,1,0-12.674,0A9.079,9.079,0,0,0,36,13.238a31.482,31.482,0,0,0,2.97,4.664c.762,1.02,1.535,1.96,2.218,2.753.683-.792,1.456-1.733,2.218-2.753A31.483,31.483,0,0,0,46.378,13.238ZM7.04,34.853a2.432,2.432,0,0,1,2.376-2.376,2.376,2.376,0,1,1,0,4.753A2.432,2.432,0,0,1,7.04,34.853Zm4.614,13.506c-.2.228-.386.436-.554.634h-.01c-.941,1.059-1.584,1.7-1.584,1.7s-.9-.9-2.149-2.337C4.553,45.141,0,39.239,0,34.853a9.45,9.45,0,0,1,9.505-9.505,9.451,9.451,0,0,1,9.505,9.505c0,4.04-3.871,9.377-6.674,12.713-.238.277-.465.545-.683.792Zm3.04-9.773a8.65,8.65,0,0,0,1.059-3.733,6.286,6.286,0,0,0-6.337-6.337,6.4,6.4,0,0,0-6.337,6.337,9.58,9.58,0,0,0,1.24,3.733,31.386,31.386,0,0,0,2.968,4.664c.766,1.02,1.536,1.96,2.129,2.753a27.938,27.938,0,0,0,2.307-2.753A32.313,32.313,0,0,0,14.694,38.586Z"/></svg>