<svg xmlns="http://www.w3.org/2000/svg" width="49.758" height="49.758" viewBox="0 0 49.758 49.758"><defs><style>.a{fill:#f19e15;}</style></defs><path class="a" d="M40.428,24.879s9.33-9.33,9.33-15.549a9.33,9.33,0,0,0-18.659,0c0,2.857,1.963,6.366,4.091,9.33H31.1a9.33,9.33,0,0,0,0,18.659h9.33a3.11,3.11,0,0,1,0,6.22h-22.1c-.6.933-1.225,1.827-1.846,2.643-1.04,1.38-2.07,2.614-2.915,3.576H40.428a9.33,9.33,0,0,0,0-18.659H31.1a3.11,3.11,0,0,1,0-6.22Zm0-12.439a3.11,3.11,0,1,1,3.11-3.11A3.107,3.107,0,0,1,40.428,12.439Zm-25.86,31.1c2.128-2.964,4.091-6.472,4.091-9.33A9.33,9.33,0,0,0,0,34.208c0,6.22,9.33,15.549,9.33,15.549s.34-.34.894-.933c.039-.039.068-.078.107-.117.321-.34.69-.758,1.108-1.244l.058-.058C12.41,46.356,13.508,45.015,14.568,43.538ZM9.33,37.318a3.11,3.11,0,1,1,3.11-3.11A3.107,3.107,0,0,1,9.33,37.318Z"/></svg>