<svg xmlns="http://www.w3.org/2000/svg" width="27.5" height="27.5" viewBox="0 0 27.5 27.5"><defs><style>.a{fill:#fff;}</style></defs><path class="a" d="M23.633,5.156a1.289,1.289,0,1,1-1.289-1.289A1.286,1.286,0,0,1,23.633,5.156ZM22.344,13.75h-4.3a2.578,2.578,0,1,0,0,5.156H23.2a4.3,4.3,0,1,1,0,8.594H7.5a20.23,20.23,0,0,0,1.37-1.719H23.2a2.578,2.578,0,1,0,0-5.156H18.047a4.3,4.3,0,1,1,0-8.594h2.745c-1.52-1.81-3.6-4.689-3.6-6.875a5.156,5.156,0,0,1,10.313,0c0,2.379-2.471,5.581-3.991,7.326C22.833,13.261,22.344,13.75,22.344,13.75Zm2.814-6.569a4.925,4.925,0,0,0,.623-2.025,3.437,3.437,0,1,0-6.875,0,4.925,4.925,0,0,0,.623,2.025,17.078,17.078,0,0,0,1.611,2.53c.414.553.833,1.063,1.2,1.493.371-.43.79-.94,1.2-1.493A17.078,17.078,0,0,0,25.158,7.181ZM3.819,18.906a1.319,1.319,0,0,1,1.289-1.289,1.289,1.289,0,1,1,0,2.578A1.319,1.319,0,0,1,3.819,18.906Zm2.5,7.326c-.107.124-.209.236-.3.344H6.016c-.51.575-.859.924-.859.924s-.489-.489-1.166-1.268C2.47,24.487,0,21.286,0,18.906A5.126,5.126,0,0,1,5.156,13.75a5.127,5.127,0,0,1,5.156,5.156c0,2.191-2.1,5.086-3.62,6.9-.129.15-.252.3-.371.43Zm1.649-5.3a4.692,4.692,0,0,0,.575-2.025,3.41,3.41,0,0,0-3.437-3.437A3.47,3.47,0,0,0,1.67,18.906a5.2,5.2,0,0,0,.672,2.025,17.026,17.026,0,0,0,1.61,2.53c.416.553.833,1.063,1.155,1.493a15.155,15.155,0,0,0,1.251-1.493A17.528,17.528,0,0,0,7.971,20.931Z"/></svg>