<svg xmlns="http://www.w3.org/2000/svg" width="30.752" height="21.526" viewBox="0 0 30.752 21.526"><defs><style>.a{fill:#fff;}</style></defs><g transform="translate(-3879.132 2877.565)"><path class="a" d="M24.6,35.844a.769.769,0,1,1-.769-.769A.771.771,0,0,1,24.6,35.844Zm0,3.075a.769.769,0,1,1-.769-.769A.771.771,0,0,1,24.6,38.919Zm-1.538,3.075a.769.769,0,1,1,.769.769A.771.771,0,0,1,23.064,41.994ZM24.6,45.069a.769.769,0,1,1-.769-.769A.771.771,0,0,1,24.6,45.069Zm6.15-9.994v3.46a1.922,1.922,0,1,0,0,3.844v3.46a3.078,3.078,0,0,1-3.075,3.075H7.688a3.078,3.078,0,0,1-3.075-3.075V35.075A3.076,3.076,0,0,1,7.688,32H27.677A3.076,3.076,0,0,1,30.752,35.075ZM6.919,45.838a.771.771,0,0,0,.769.769H27.677a.771.771,0,0,0,.769-.769V44a4.232,4.232,0,0,1,0-7.092V35.075a.77.77,0,0,0-.769-.769H7.688a.77.77,0,0,0-.769.769ZM1.153,35.075a1.152,1.152,0,0,1,1.153,1.153V47.76a3.459,3.459,0,0,0,3.46,3.46h19.22a1.153,1.153,0,0,1,0,2.306H5.766A5.765,5.765,0,0,1,0,47.76V36.228A1.152,1.152,0,0,1,1.153,35.075Z" transform="translate(3879.132 -2909.565)"/><path class="a" d="M35.7,0c1.944,0,3.241.509,3.241,1.157v.694a.462.462,0,0,1,.463.463v.926a.462.462,0,0,1-.463.463V6.018a.462.462,0,0,1-.463.463v.463a.462.462,0,0,1-.463.463h-.463a.462.462,0,0,1-.463-.463V6.481H34.315v.463a.462.462,0,0,1-.463.463h-.463a.462.462,0,0,1-.463-.463V6.481a.463.463,0,0,1-.463-.463V3.7A.463.463,0,0,1,32,3.241V2.315a.463.463,0,0,1,.463-.463V1.157C32.463.509,33.759,0,35.7,0ZM33.389,3.7a.462.462,0,0,0,.463.463h1.62V1.852h-1.62a.462.462,0,0,0-.463.463Zm2.546.463h1.62a.462.462,0,0,0,.463-.463V2.315a.462.462,0,0,0-.463-.463h-1.62ZM33.62,5.787a.463.463,0,1,0-.463-.463A.462.462,0,0,0,33.62,5.787Zm4.167,0a.463.463,0,1,0-.463-.463A.462.462,0,0,0,37.787,5.787ZM36.861.926H34.546a.231.231,0,0,0,0,.463h2.315a.231.231,0,0,0,0-.463Z" transform="translate(3857.527 -2873.063)"/></g></svg>