<svg xmlns="http://www.w3.org/2000/svg" width="53.042" height="37.129" viewBox="0 0 53.042 37.129"><defs><style>.a{fill:#072661;}</style></defs><g transform="translate(-2703 1691)"><path class="a" d="M42.434,38.63A1.326,1.326,0,1,1,41.108,37.3,1.33,1.33,0,0,1,42.434,38.63Zm0,5.3a1.326,1.326,0,1,1-1.326-1.326A1.33,1.33,0,0,1,42.434,43.934Zm-2.652,5.3a1.326,1.326,0,1,1,1.326,1.326A1.33,1.33,0,0,1,39.781,49.239Zm2.652,5.3a1.326,1.326,0,1,1-1.326-1.326A1.33,1.33,0,0,1,42.434,54.543ZM53.042,37.3v5.967a3.315,3.315,0,1,0,0,6.63v5.967a5.309,5.309,0,0,1-5.3,5.3H13.26a5.309,5.309,0,0,1-5.3-5.3V37.3a5.306,5.306,0,0,1,5.3-5.3H47.738A5.306,5.306,0,0,1,53.042,37.3ZM11.934,55.869a1.33,1.33,0,0,0,1.326,1.326H47.738a1.33,1.33,0,0,0,1.326-1.326V52.7a7.3,7.3,0,0,1,0-12.233V37.3a1.328,1.328,0,0,0-1.326-1.326H13.26A1.328,1.328,0,0,0,11.934,37.3ZM1.989,37.3a1.987,1.987,0,0,1,1.989,1.989V59.184a5.966,5.966,0,0,0,5.967,5.967H43.1a1.989,1.989,0,0,1,0,3.978H9.945A9.944,9.944,0,0,1,0,59.184V39.293A1.987,1.987,0,0,1,1.989,37.3Z" transform="translate(2703 -1723)"/><path class="a" d="M38.388,0c3.354,0,5.59.878,5.59,2v1.2a.8.8,0,0,1,.8.8v1.6a.8.8,0,0,1-.8.8v3.993a.8.8,0,0,1-.8.8v.8a.8.8,0,0,1-.8.8h-.8a.8.8,0,0,1-.8-.8v-.8H35.993v.8a.8.8,0,0,1-.8.8h-.8a.8.8,0,0,1-.8-.8v-.8a.8.8,0,0,1-.8-.8V6.388a.8.8,0,0,1-.8-.8v-1.6a.8.8,0,0,1,.8-.8V2C32.8.878,35.034,0,38.388,0ZM34.4,6.388a.8.8,0,0,0,.8.8h2.795V3.194H35.194a.8.8,0,0,0-.8.8Zm4.392.8h2.795a.8.8,0,0,0,.8-.8v-2.4a.8.8,0,0,0-.8-.8H38.787ZM34.795,9.982a.8.8,0,1,0-.8-.8A.8.8,0,0,0,34.795,9.982Zm7.187,0a.8.8,0,1,0-.8-.8A.8.8,0,0,0,41.982,9.982ZM40.384,1.6H36.392a.4.4,0,0,0,0,.8h3.993a.4.4,0,1,0,0-.8Z" transform="translate(2688.93 -1683.236)"/></g></svg>